<?xml version="1.0" encoding="UTF-8" standalone="no"?><svg xmlns="http://www.w3.org/2000/svg" xmlns:xlink="http://www.w3.org/1999/xlink" clip-rule="evenodd" stroke-miterlimit="4.00" viewBox="0 0 1024 768"><desc>SVG generated by Keynote</desc><defs></defs><g transform="matrix(1.00, 0.00, -0.00, -1.00, 0.0, 768.0)"><path d="M 0.0 768.0 L 1024.0 768.0 L 1024.0 0.0 L 0.0 0.0 Z M 0.0 768.0 " fill="#FEFFFF"></path><text xml:space="preserve" font-family="Helvetica-Light" font-size="26.0" fill="#000000" transform="matrix(1.00, 0.00, -0.00, -1.00, 804.0, 22.0)">h</text><text xml:space="preserve" font-family="Helvetica-Light" font-size="26.0" fill="#000000" transform="matrix(1.00, 0.00, -0.00, -1.00, 818.5, 22.0)">t</text><text xml:space="preserve" font-family="Helvetica-Light" font-size="26.0" fill="#000000" transform="matrix(1.00, 0.00, -0.00, -1.00, 825.7, 22.0)">t</text><text xml:space="preserve" font-family="Helvetica-Light" font-size="26.0" fill="#000000" transform="matrix(1.00, 0.00, -0.00, -1.00, 832.9, 22.0)">p</text><text xml:space="preserve" font-family="Helvetica-Light" font-size="26.0" fill="#000000" transform="matrix(1.00, 0.00, -0.00, -1.00, 848.8, 22.0)">:</text><text xml:space="preserve" font-family="Helvetica-Light" font-size="26.0" fill="#000000" transform="matrix(1.00, 0.00, -0.00, -1.00, 856.0, 22.0)">/</text><text xml:space="preserve" font-family="Helvetica-Light" font-size="26.0" fill="#000000" transform="matrix(1.00, 0.00, -0.00, -1.00, 863.3, 22.0)">/</text><text xml:space="preserve" font-family="Helvetica-Light" font-size="26.0" fill="#000000" transform="matrix(1.00, 0.00, -0.00, -1.00, 870.5, 22.0)">b</text><text xml:space="preserve" font-family="Helvetica-Light" font-size="26.0" fill="#000000" transform="matrix(1.00, 0.00, -0.00, -1.00, 886.4, 22.0)">i</text><text xml:space="preserve" font-family="Helvetica-Light" font-size="26.0" fill="#000000" transform="matrix(1.00, 0.00, -0.00, -1.00, 892.1, 22.0)">t</text><text xml:space="preserve" font-family="Helvetica-Light" font-size="26.0" fill="#000000" transform="matrix(1.00, 0.00, -0.00, -1.00, 899.4, 22.0)">.</text><text xml:space="preserve" font-family="Helvetica-Light" font-size="26.0" fill="#000000" transform="matrix(1.00, 0.00, -0.00, -1.00, 906.6, 22.0)">l</text><text xml:space="preserve" font-family="Helvetica-Light" font-size="26.0" fill="#000000" transform="matrix(1.00, 0.00, -0.00, -1.00, 912.4, 22.0)">y</text><text xml:space="preserve" font-family="Helvetica-Light" font-size="26.0" fill="#000000" transform="matrix(1.00, 0.00, -0.00, -1.00, 925.4, 22.0)">/</text><text xml:space="preserve" font-family="Helvetica-Light" font-size="26.0" fill="#000000" transform="matrix(1.00, 0.00, -0.00, -1.00, 932.6, 22.0)">p</text><text xml:space="preserve" font-family="Helvetica-Light" font-size="26.0" fill="#000000" transform="matrix(1.00, 0.00, -0.00, -1.00, 948.5, 22.0)">e</text><text xml:space="preserve" font-family="Helvetica-Light" font-size="26.0" fill="#000000" transform="matrix(1.00, 0.00, -0.00, -1.00, 962.9, 22.0)">r</text><text xml:space="preserve" font-family="Helvetica-Light" font-size="26.0" fill="#000000" transform="matrix(1.00, 0.00, -0.00, -1.00, 972.1, 22.0)">f</text><text xml:space="preserve" font-family="Helvetica-Light" font-size="26.0" fill="#000000" transform="matrix(1.00, 0.00, -0.00, -1.00, 979.3, 22.0)">3</text><text xml:space="preserve" font-family="Helvetica-Light" font-size="26.0" fill="#000000" transform="matrix(1.00, 0.00, -0.00, -1.00, 993.7, 22.0)">6</text><g><clipPath id="clip-1"><path d="M 803.3 18.8 L 1008.5 18.8 L 1008.5 22.1 L 803.3 22.1 Z M 803.3 18.8 "></path></clipPath><g clip-path="url(#clip-1)"><path d="M 4.5 31.0 L 208.7 31.0 " fill="none" stroke="#000000" stroke-width="1.30" stroke-miterlimit="0.00" transform="matrix(1.00, 0.00, 0.00, -1.00, 799.8, 51.4)"></path></g></g><g><clipPath id="clip-2"><path d="M 30.0 710.0 L 994.0 710.0 L 994.0 101.0 L 30.0 101.0 Z M 30.1 710.0 "></path></clipPath><g clip-path="url(#clip-2)"><g><clipPath id="clip-3"><path d="M -201.1 883.2 L 1226.9 883.2 L 1226.9 -97.0 L -201.1 -97.0 Z M -201.1 883.2 "></path></clipPath><g clip-path="url(#clip-3)"><g><clipPath id="clip-4"><path d="M -252.0 -146.0 L 1276.0 -146.0 L 1276.0 934.0 L -252.0 934.0 Z M -252.0 -146.0 "></path></clipPath><g clip-path="url(#clip-4)"><path d="M -201.1 883.2 L 1226.9 883.2 L 1226.9 -97.0 L -201.1 -97.0 Z M -201.1 883.2 " fill="#FFFFFF"></path></g></g></g></g></g></g><g><clipPath id="clip-5"><path d="M 30.0 710.0 L 994.0 710.0 L 994.0 101.0 L 30.0 101.0 Z M 30.1 710.0 "></path></clipPath><g clip-path="url(#clip-5)"><g><clipPath id="clip-6"><path d="M -201.1 794.3 L 1226.9 794.3 L 1226.9 -8.2 L -201.1 -8.2 Z M -201.1 794.3 "></path></clipPath><g clip-path="url(#clip-6)"><g><clipPath id="clip-7"><path d="M -252.0 -146.0 L 1276.0 -146.0 L 1276.0 934.0 L -252.0 934.0 Z M -252.0 -146.0 "></path></clipPath><g clip-path="url(#clip-7)"><path d="M -201.1 794.3 L 1226.9 794.3 L 1226.9 -8.2 L -201.1 -8.2 Z M -201.1 794.3 " fill="#FFFFFF"></path></g></g></g></g></g></g><g><clipPath id="clip-8"><path d="M 30.0 710.0 L 994.0 710.0 L 994.0 101.0 L 30.0 101.0 Z M 30.1 710.0 "></path></clipPath><g clip-path="url(#clip-8)"><g><clipPath id="clip-9"><path d="M 231.7 685.7 L 794.1 685.7 L 794.1 520.0 L 231.7 520.0 Z M 231.7 685.7 "></path></clipPath><g clip-path="url(#clip-9)"><g><clipPath id="clip-10"><path d="M -252.0 -146.0 L 1276.0 -146.0 L 1276.0 934.0 L -252.0 934.0 Z M -252.0 -146.0 "></path></clipPath><g clip-path="url(#clip-10)"><image xlink:href="ECC1A54C6685F665A605FD18E137E270.png" width="1000.00" height="295.00" transform="matrix(0.56, 0.00, -0.00, -0.56, 231.7, 685.7)"></image></g></g></g></g></g></g><g><clipPath id="clip-11"><path d="M 30.0 710.0 L 994.0 710.0 L 994.0 101.0 L 30.0 101.0 Z M 30.1 710.0 "></path></clipPath><g clip-path="url(#clip-11)"><g><clipPath id="clip-12"><path d="M 498.2 253.4 L 795.7 253.4 L 795.7 30.5 L 498.2 30.5 Z M 498.2 253.4 "></path></clipPath><g clip-path="url(#clip-12)"><g><clipPath id="clip-13"><path d="M -252.0 -146.0 L 1276.0 -146.0 L 1276.0 934.0 L -252.0 934.0 Z M -252.0 -146.0 "></path></clipPath><g clip-path="url(#clip-13)"><image xlink:href="0233D5EBE60689192EE08235F22B0C5C.png" width="200.00" height="150.00" transform="matrix(1.49, 0.00, -0.00, -1.49, 498.2, 253.4)"></image></g></g></g></g></g></g><g><clipPath id="clip-14"><path d="M 30.0 710.0 L 994.0 710.0 L 994.0 101.0 L 30.0 101.0 Z M 30.1 710.0 "></path></clipPath><g clip-path="url(#clip-14)"><g><clipPath id="clip-15"><path d="M 117.9 186.4 L 481.2 186.4 L 481.2 97.5 L 117.9 97.5 Z M 117.9 186.4 "></path></clipPath><g clip-path="url(#clip-15)"><g><clipPath id="clip-16"><path d="M -252.0 -146.0 L 1276.0 -146.0 L 1276.0 934.0 L -252.0 934.0 Z M -252.0 -146.0 "></path></clipPath><g clip-path="url(#clip-16)"><image xlink:href="C342CEE6CCA370264FD920F1F57E6D9E.png" width="600.00" height="147.00" transform="matrix(0.61, 0.00, -0.00, -0.60, 117.9, 186.4)"></image></g></g></g></g></g></g><g><clipPath id="clip-17"><path d="M 30.0 710.0 L 994.0 710.0 L 994.0 101.0 L 30.0 101.0 Z M 30.1 710.0 "></path></clipPath><g clip-path="url(#clip-17)"><g><clipPath id="clip-18"><path d="M -201.1 794.3 L 1226.9 794.3 L 1226.9 -8.2 L -201.1 -8.2 Z M -201.1 794.3 "></path></clipPath><g clip-path="url(#clip-18)"><g><clipPath id="clip-19"><path d="M -252.0 -146.0 L 1276.0 -146.0 L 1276.0 934.0 L -252.0 934.0 Z M -252.0 -146.0 "></path></clipPath><g clip-path="url(#clip-19)"><path d="M 841.5 117.1 L 841.5 126.9 L 851.3 126.9 L 851.3 117.1 L 841.5 117.1 Z M 861.4 117.1 L 861.4 126.9 L 871.1 126.9 L 871.1 117.1 L 861.4 117.1 Z M 881.2 117.1 L 881.2 126.9 L 891.0 126.9 L 891.0 117.1 L 881.2 117.1 Z M 881.2 117.1 " fill="#000000"></path></g></g></g></g></g></g><g><clipPath id="clip-20"><path d="M 30.0 710.0 L 994.0 710.0 L 994.0 101.0 L 30.0 101.0 Z M 30.1 710.0 "></path></clipPath><g clip-path="url(#clip-20)"><g><clipPath id="clip-21"><path d="M 211.4 476.8 L 814.4 476.8 L 814.4 249.0 L 211.4 249.0 Z M 211.4 476.8 "></path></clipPath><g clip-path="url(#clip-21)"><g><clipPath id="clip-22"><path d="M -252.0 -146.0 L 1276.0 -146.0 L 1276.0 934.0 L -252.0 934.0 Z M -252.0 -146.0 "></path></clipPath><g clip-path="url(#clip-22)"><image xlink:href="D9D82A39BA78A6BD2B5429613CB5CE32.png" width="1000.00" height="378.00" transform="matrix(0.60, 0.00, -0.00, -0.60, 211.4, 476.8)"></image></g></g></g></g></g></g></g></svg>